<svg version="1.1" xmlns="http://www.w3.org/2000/svg" xmlns:xlink="http://www.w3.org/1999/xlink" width="295.45631" height="341.96859" viewBox="0,0,295.45631,341.96859"><g transform="translate(-92.29089,-9.1407)"><g data-paper-data="{&quot;isPaintingLayer&quot;:true}" stroke-miterlimit="10" stroke-dasharray="" stroke-dashoffset="0" style="mix-blend-mode: normal"><g stroke-width="3.5" stroke-linecap="butt" stroke-linejoin="miter"><path d="M295.35488,202.31776c11.65896,-56.00102 66.29569,-39.94161 68.07411,-63.28869c1.85515,-24.27663 -24.68372,-26.99322 -36.13963,-34.79613c-11.45592,-7.80292 -5.30102,-18.77509 4.58609,-22.18996c7.53069,-2.60403 55.75457,12.25101 54.07912,50.95133c-2.34561,53.83529 -54.11512,30.22091 -70.76295,75.43282c-14.15403,38.43932 -18.78453,-5.72191 -19.83674,-6.10936z" fill="#ffe59c" fill-rule="evenodd" stroke="#000000"/><path d="M327.28937,104.23295c-11.45592,-7.80292 -5.30102,-18.77509 4.58609,-22.18996c2.56982,-0.88862 9.87835,0.25586 18.32561,3.68722c-2.77544,7.9379 -5.53304,15.88206 -8.34094,23.80851c-0.02703,0.07632 -0.25464,0.60335 -0.5805,1.40137c-5.25467,-2.28766 -10.37396,-4.24397 -13.99026,-6.70712z" fill="#af9d6b" fill-rule="nonzero" stroke="#000000"/><path d="M385.94623,132.99124c-2.33725,53.83835 -54.1015,30.23541 -70.74932,75.44732c-8.93275,24.25944 -14.06714,15.61684 -16.90539,5.83774c3.00407,3.17349 7.19824,1.20908 12.94841,-14.40716c16.64783,-45.21191 68.41207,-21.60895 70.74932,-75.44732c0.23943,-5.44054 -0.50992,-10.41063 -1.99402,-14.93056c3.97419,6.56532 6.34754,14.36195 5.95099,23.49996zM323.32711,95.65206c10.12145,6.89428 32.01093,9.82398 35.69831,27.1609c-7.74875,-10.04147 -23.57456,-13.03336 -31.74134,-18.59149c-4.65393,-3.17406 -6.40378,-6.84352 -6.17982,-10.33621c0.65978,0.60331 1.38198,1.19166 2.22284,1.76681z" fill-opacity="0.31373" fill="#000000" fill-rule="evenodd" stroke="none"/></g><g fill-rule="nonzero"><path d="M307.13421,225.67946c0.01744,52.74449 -42.74482,95.52419 -95.49803,95.52419c-52.74972,0 -95.50675,-42.7797 -95.48932,-95.52419c-0.01962,-52.75582 42.7396,-95.52419 95.48932,-95.52419c52.7532,-0.00349 95.51547,42.76837 95.49803,95.52419z" data-paper-data="{&quot;index&quot;:null}" fill="#ffe59c" stroke="#000000" stroke-width="4" stroke-linecap="round" stroke-linejoin="round"/><path d="M271.72228,256.26249c0.01048,35.2653 -25.69667,63.86807 -57.41002,63.86807c-31.71126,0 -57.41528,-28.60278 -57.4048,-63.86807c-0.01179,-35.27287 25.69354,-63.86807 57.4048,-63.86807c31.71336,-0.00233 57.42051,28.59519 57.41002,63.86807z" data-paper-data="{&quot;index&quot;:null}" fill="#eeeeee" stroke="#000000" stroke-width="4" stroke-linecap="round" stroke-linejoin="round"/><path d="M307.13421,225.68817c0,52.70961 -42.7797,95.48932 -95.48932,95.48932c-51.23015,0 -93.09489,-40.41709 -95.41085,-91.07795c13.38141,36.58985 48.54062,62.74415 89.74408,62.74415c52.70961,0 95.48932,-42.7797 95.48932,-95.48932c0,-1.48208 -0.04359,-2.97287 -0.10462,-4.44623c3.73134,10.22632 5.77138,21.27215 5.77138,32.78005z" data-paper-data="{&quot;index&quot;:null}" fill-opacity="0.31373" fill="#000000" stroke="none" stroke-width="1" stroke-linecap="butt" stroke-linejoin="miter"/></g><g><g fill-rule="evenodd" stroke="#000000" stroke-width="3.5" stroke-linecap="butt" stroke-linejoin="round"><path d="M321.37667,11.754c8.7917,1.38628 17.80017,4.64861 17.09787,6.47485c-6.76285,-1.10404 -10.17896,0.15772 -10.07491,1.20365c0.20809,1.95905 4.28314,2.48203 2.97392,9.54626c-2.26296,-3.14611 -5.34959,-4.39127 -7.93334,-4.99726c-2.82653,16.6935 -16.96497,74.63941 -39.60318,76.14191c-1.35257,0.09131 -2.66179,0.12451 -3.90165,0.13282c5.35826,9.72057 8.41021,20.77763 8.41021,32.53198c0,38.57517 -32.70444,83.27656 -72.95206,83.27656c-40.25629,0 -72.91739,-44.70138 -72.91739,-83.27656c0,-11.76264 3.04328,-22.84461 8.40154,-32.57349c-1.71673,0.0332 -3.53749,0.04151 -5.48832,-0.09131c-22.71624,-1.5108 -32.85468,-59.62273 -35.62919,-76.29962c-2.70514,0.54787 -6.14725,1.72662 -8.61829,5.15498c-1.30921,-7.06423 2.76583,-7.5872 2.97392,-9.54626c0.10405,-1.04594 -3.31207,-2.30771 -10.07491,-1.20365c-0.73698,-1.92585 9.35527,-5.45382 18.57182,-6.68238c1.65603,-0.41505 3.91899,-0.63919 6.65013,-0.63919c17.18457,0.0083 50.07394,37.73274 56.17785,60.41964c0.11272,0.22413 0.39883,1.22026 0.63294,2.63975c11.34945,-6.98951 24.82313,-11.09026 39.3199,-11.09026c13.88118,0 26.86932,3.7604 37.9153,10.22694c0.19942,-0.97122 0.38149,-1.60211 0.47687,-1.77643c6.1039,-22.68688 42.99327,-60.43623 60.16918,-60.43623c3.18201,0 5.74842,0.29884 7.4218,0.86332z" fill="#ffe59c"/><path d="M119.1848,21.60732c1.8381,-4.20865 37.95284,32.86831 40.51058,68.33057c-35.54831,12.29392 -42.34001,-64.11363 -40.51058,-68.33057z" fill="#af9d6b"/></g><path d="M268.31714,89.93792c2.55774,-35.46227 42.67247,-72.53923 44.51058,-68.33057c1.82943,4.21696 -8.97094,80.6245 -44.51058,68.33057z" fill="#af9d6b" fill-rule="evenodd" stroke="#000000" stroke-width="3.5" stroke-linecap="butt" stroke-linejoin="round"/><path d="M282.67567,95.87045c3.63941,9.48381 5.6699,19.88479 5.6699,30.81528c0,43.93943 -32.4449,94.87589 -72.3923,94.87589c-32.78045,0 -60.46744,-34.30434 -69.35516,-70.88744c11.47746,31.68518 36.55751,58.7372 65.67273,58.7372c39.9474,0 72.3923,-50.89865 72.3923,-94.83808c0,-6.4297 -0.70551,-12.70811 -2.02189,-18.70286z" fill-opacity="0.31373" fill="#000000" fill-rule="nonzero" stroke="none" stroke-width="3.5" stroke-linecap="butt" stroke-linejoin="miter"/><g data-paper-data="{&quot;index&quot;:null}" fill-rule="nonzero"><path d="M207.85146,119.62589c0,10.47347 -8.48498,18.96586 -18.96215,18.96586c-10.47469,0 -18.96339,-8.49239 -18.96091,-18.96586c-0.00247,-10.47469 8.48622,-18.96709 18.96091,-18.96709c10.47717,0 18.96215,8.49239 18.96215,18.96709z" fill="#ffffff" stroke="#000000" stroke-width="2.7096" stroke-linecap="round" stroke-linejoin="round"/><path d="M199.94697,122.97171c0,3.49157 -2.8271,6.32237 -6.31743,6.32237c-3.49157,0 -6.32113,-2.8308 -6.32113,-6.32237c0,-3.49033 2.82956,-6.32113 6.32113,-6.32113c3.49033,0 6.31743,2.8308 6.31743,6.32113z" fill="#000000" stroke="none" stroke-width="1" stroke-linecap="butt" stroke-linejoin="miter"/></g><g data-paper-data="{&quot;index&quot;:null}" fill-rule="nonzero"><path d="M243.69324,100.6588c10.47469,0 18.96338,8.4924 18.96091,18.96709c0.00248,10.47347 -8.48622,18.96586 -18.96091,18.96586c-10.47717,0 -18.96215,-8.49239 -18.96215,-18.96586c0,-10.4747 8.48498,-18.96709 18.96215,-18.96709z" fill="#ffffff" stroke="#000000" stroke-width="2.7096" stroke-linecap="round" stroke-linejoin="round"/><path d="M238.95301,116.65058c3.49157,0 6.32113,2.8308 6.32113,6.32113c0,3.49157 -2.82956,6.32237 -6.32113,6.32237c-3.49033,0 -6.31743,-2.8308 -6.31743,-6.32237c0,-3.49033 2.8271,-6.32113 6.31743,-6.32113z" fill="#000000" stroke="none" stroke-width="1" stroke-linecap="butt" stroke-linejoin="miter"/></g><path d="M196.96744,157.99065c5.71702,-6.43527 29.71512,-6.46419 35.05948,0.80398c5.07473,6.90147 -7.62196,26.54508 -17.52919,25.73995c-9.88641,-0.79819 -22.88561,-20.52163 -17.53686,-26.53698z" fill="#010101" fill-rule="nonzero" stroke="none" stroke-width="3.5" stroke-linecap="butt" stroke-linejoin="miter"/></g><g fill-rule="nonzero"><path d="M214.1667,327.96716c0,21.55 -17.49,20.77 -39.033,20.77c-11.979,0 -22.705,0.24 -29.866,-3.25c-5.718,-2.79 -9.164,-7.95 -9.164,-17.52c0,-21.54 17.485,-39.03 39.03,-39.03c21.543,0 39.033,17.49 39.033,39.03z" fill="#ffe59c" stroke="#010101" stroke-width="4" stroke-linecap="round" stroke-linejoin="round"/><path d="M213.6767,327.97718c0,16.93 -10.82,20.06 -25.901,20.63c9.071,-7.19 14.901,-18.29 14.901,-30.75c0,-8.63 -2.8,-16.62 -7.526,-23.1c11.126,6.88 18.526,19.19 18.526,33.22z" fill-opacity="0.3137" fill="#010101" stroke="none" stroke-width="1" stroke-linecap="butt" stroke-linejoin="miter"/><g fill="none" stroke="#010101" stroke-width="4" stroke-linecap="round" stroke-linejoin="miter"><path d="M189.3167,322.04927c0,0 4.01,13.22 0.5,24.55"/><path d="M171.7967,349.10925c-4.3,-18.25 0.61,-32.73 0.61,-32.73"/><path d="M153.5367,347.2293c-8.81,-13.85 -1.26,-25.18 -1.26,-25.18"/></g></g><g data-paper-data="{&quot;index&quot;:null}" fill-rule="nonzero"><path d="M258.13668,288.93716c21.545,0 39.03,17.49 39.03,39.03c0,9.57 -3.446,14.73 -9.164,17.52c-7.161,3.49 -17.887,3.25 -29.866,3.25c-21.543,0 -39.033,0.78 -39.033,-20.77c0,-21.54 17.49,-39.03 39.033,-39.03z" fill="#ffe59c" stroke="#010101" stroke-width="4" stroke-linecap="round" stroke-linejoin="round"/><path d="M238.11968,294.75716c-4.726,6.48 -7.526,14.47 -7.526,23.1c0,12.46 5.83,23.56 14.901,30.75c-15.081,-0.57 -25.901,-3.7 -25.901,-20.63c0,-14.03 7.4,-26.34 18.526,-33.22z" fill-opacity="0.3137" fill="#010101" stroke="none" stroke-width="1" stroke-linecap="butt" stroke-linejoin="miter"/><g fill="none" stroke="#010101" stroke-width="4" stroke-linecap="round" stroke-linejoin="miter"><path d="M243.4537,346.59932c-3.51,-11.33 0.5,-24.55 0.5,-24.55"/><path d="M260.8637,316.3793c0,0 4.91,14.48 0.61,32.73"/><path d="M280.99369,322.04926c0,0 7.55,11.33 -1.26,25.18"/></g></g></g></g></svg>